<?xml version="1.0" standalone="no"?>
<!DOCTYPE svg PUBLIC "-//W3C//DTD SVG 20010904//EN"
 "http://www.w3.org/TR/2001/REC-SVG-20010904/DTD/svg10.dtd">
<svg version="1.0" xmlns="http://www.w3.org/2000/svg"
 width="888.000000pt" height="981.000000pt" viewBox="0 0 888.000000 981.000000"
 preserveAspectRatio="xMidYMid meet">

<g transform="translate(0.000000,981.000000) scale(0.100000,-0.100000)"
fill="#000000" stroke="none">
<path d="M4321 9784 c-172 -46 -308 -194 -340 -368 -15 -84 -15 -4978 0 -5062
38 -208 214 -368 421 -381 47 -3 107 -1 137 6 181 39 330 196 360 381 15 91
15 4959 0 5050 -29 179 -166 328 -344 375 -73 19 -163 18 -234 -1z"/>
<path d="M2458 8385 c-90 -24 -367 -185 -579 -335 -926 -658 -1557 -1626
-1784 -2741 -65 -316 -90 -614 -82 -974 6 -273 21 -435 62 -675 182 -1044 756
-2011 1595 -2685 1075 -863 2497 -1176 3838 -844 1082 268 2028 942 2646 1886
376 575 609 1223 692 1923 21 185 29 616 15 810 -99 1307 -738 2467 -1791
3252 -190 141 -522 341 -615 371 -118 38 -246 27 -355 -28 -65 -33 -153 -114
-187 -173 -87 -147 -84 -351 7 -492 47 -73 112 -127 246 -204 485 -280 881
-647 1181 -1096 316 -472 508 -1002 574 -1580 22 -190 17 -612 -9 -808 -83
-619 -309 -1173 -680 -1665 -736 -975 -1923 -1496 -3137 -1376 -1505 148
-2750 1258 -3075 2741 -55 252 -74 432 -74 728 -1 153 5 311 12 375 107 930
531 1724 1237 2321 153 129 329 251 530 365 158 90 222 149 270 251 128 271
-12 578 -300 654 -62 17 -175 16 -237 -1z"/>
</g>
</svg>
